# xmcd
#
# Track frame offsets:
#	150
#	9636
#	21692
#	37057
#	50802
#	64736
#	79366
#	87675
#	100860
#	117164
#
# Disc length: 1711 seconds
#
# Revision: 0
# Processed by: cddbd v1.5.2PL0 Copyright (c) Steve Scherf et al.
# Submitted via: dBpowerAMP V4.0
#
DISCID=8f06ad0a
DTITLE=The Primitive Quartet - Laying Up Treasures
DYEAR=2006
DGENRE=Gospel
TTITLE0=01_They Shall Walk With Me In White
TTITLE1=02_Lord You Just Keep On Blessing Me
TTITLE2=03_No One But Jesus My Lord
TTITLE3=04_I Believe It All
TTITLE4=05_It Looks Like Everybody's Going Home
TTITLE5=06_Laying Up Treasures
TTITLE6=07_O, Happy Day
TTITLE7=08_Eternity With You
TTITLE8=09_Thomas
TTITLE9=10_Our Sweet Lord Is Coming Back
EXTD=Bluegrass Gospel         \nwww.primitivequartet.com 
EXTT0=
EXTT1=
EXTT2=
EXTT3=
EXTT4=
EXTT5=
EXTT6=
EXTT7=
EXTT8=
EXTT9=
PLAYORDER=
